<svg width="93" height="80" viewBox="0 0 93 80" fill="none" xmlns="http://www.w3.org/2000/svg">
<g clip-path="url(#clip0_6415_602)">
<path d="M14.51 14.47C13.28 15.7 12.66 17.19 12.66 18.94C12.66 20.69 13.28 22.19 14.51 23.41C15.74 24.64 17.24 25.25 19 25.25C20.76 25.25 22.25 24.64 23.49 23.41C24.72 22.18 25.34 20.69 25.34 18.94C25.34 17.19 24.72 15.69 23.49 14.47C22.26 13.24 20.76 12.63 19 12.63C17.24 12.63 15.75 13.24 14.51 14.47ZM4.22 37.89H40.55C40.55 34.98 40.93 32.16 41.63 29.47H8.44V8.42H58.37C62.99 5.99 68.26 4.6 73.84 4.6C74.57 4.6 75.28 4.63 76 4.68V4.21C76 3.02 75.6 2.02 74.79 1.21C73.98 0.4 72.98 0 71.78 0H4.22C3.02 0 2.02 0.4 1.21 1.21C0.4 2.02 0 3.02 0 4.21V33.68C0 34.88 0.4 35.88 1.21 36.68C2.02 37.48 3.02 37.89 4.22 37.89ZM87.69 27.94C87.66 27.88 87.63 27.85 87.57 27.79C84.65 24.52 80.51 19.88 77.52 16.58C76.6 15.6 75.67 14.62 74.81 13.61C74.6 13.37 74.42 13.13 74.21 12.9C74.03 12.72 73.94 12.6 73.94 12.6H73.97C72.96 11.41 72.15 10.07 71.59 8.64L71.44 8.31C71.44 8.31 71.41 8.28 71.38 8.25C71.35 8.22 71.29 8.22 71.26 8.22H71.23C71.17 8.22 71.14 8.25 71.11 8.25C71.11 8.25 71.09 8.27 71.05 8.31L70.9 8.64C70.3 10.07 69.5 11.41 68.52 12.6H68.55C68.55 12.6 68.46 12.72 68.28 12.9C68.07 13.14 67.89 13.38 67.68 13.61C66.79 14.62 65.89 15.6 64.97 16.58C62.02 19.88 57.85 24.52 54.92 27.79C54.89 27.85 54.86 27.88 54.8 27.94C43.77 42.61 55.75 54.56 55.75 54.56H55.72C59.27 58.67 64.31 61.19 69.7 61.58C70.18 61.64 70.68 61.67 71.22 61.67H71.25C71.76 61.67 72.26 61.64 72.77 61.58C78.2 61.19 83.2 58.66 86.75 54.56H86.72C86.72 54.56 98.7 42.6 87.67 27.94H87.69ZM62.02 38.26L61.75 38.68L61.72 38.71C59.69 41.15 58.5 43.77 58.11 46.35C58.05 46.68 57.75 46.89 57.45 46.83C57.24 46.8 57.09 46.65 57 46.47C56.46 45.22 56.11 43.91 55.93 42.57C55.27 37.84 56.71 33.71 59.75 30.17C60.97 28.77 62.19 27.37 63.42 25.98C63.63 25.74 63.99 25.71 64.22 25.92L64.28 25.98C65.26 27.11 66.55 28.57 67.98 30.23C68.16 30.44 68.16 30.77 67.98 31C66.01 33.35 63.93 35.85 62.05 38.23L62.02 38.26ZM78.95 50.52C77.82 53.49 75.58 55.28 72.42 55.79C67.92 56.47 63.72 53.41 63.03 48.92C63.03 48.86 63.03 48.83 63 48.77C62.64 46.24 63.42 44.01 65.06 42.11C66.97 39.88 71.17 34.7 71.23 34.61C71.32 34.7 75.79 40.26 77.46 42.23C79.61 44.7 80.08 47.52 78.95 50.53V50.52ZM85.63 45.85C85.6 45.94 85.54 46.06 85.51 46.15C85.39 46.45 85.06 46.6 84.76 46.48C84.58 46.39 84.43 46.24 84.4 46.03C83.98 43.53 82.79 41.03 80.85 38.68L80.82 38.65L80.64 38.38L80.52 38.23C78.97 36.27 70.77 26.69 67.2 22.52C67.02 22.31 67.02 21.98 67.2 21.75C68.39 20.44 69.58 19.13 70.75 17.79C70.96 17.55 71.32 17.55 71.55 17.76L71.58 17.79C72.12 18.36 72.62 18.92 73.13 19.52C76.38 23.15 79.66 26.72 82.82 30.38C86.78 34.96 87.71 40.26 85.62 45.85H85.63ZM14.51 56.58C13.28 57.81 12.66 59.3 12.66 61.05C12.66 62.8 13.28 64.3 14.51 65.52C15.74 66.74 17.24 67.36 19 67.36C20.76 67.36 22.25 66.75 23.49 65.52C24.73 64.29 25.34 62.8 25.34 61.05C25.34 59.3 24.72 57.8 23.49 56.58C22.26 55.35 20.76 54.74 19 54.74C17.24 54.74 15.75 55.35 14.51 56.58ZM67.56 70.58V71.58H8.44V50.53H43.04C41.95 47.88 41.2 45.05 40.83 42.11H4.22C3.02 42.11 2.02 42.51 1.21 43.32C0.4 44.13 0 45.12 0 46.32V75.79C0 76.98 0.4 77.98 1.21 78.79C2.02 79.6 3.02 80 4.22 80H71.78C72.98 80 73.98 79.6 74.79 78.79C75.6 77.98 76 76.98 76 75.79V71.11C75.29 71.16 74.57 71.19 73.84 71.19C71.69 71.19 69.59 70.98 67.55 70.59L67.56 70.58Z" fill="#22D3EE"/>
</g>
<defs>
<clipPath id="clip0_6415_602">
<rect width="92.35" height="80" fill="white"/>
</clipPath>
</defs>
</svg>
