<svg width="173" height="80" viewBox="0 0 173 80" fill="none" xmlns="http://www.w3.org/2000/svg">
<g clip-path="url(#clip0_6415_600)">
<path d="M47.1502 7.24C47.1502 5.27 46.4402 3.58 45.0102 2.15C43.5802 0.72 41.8802 0 39.9202 0C37.9602 0 36.2602 0.72 34.8302 2.15L1.96023 35.04C1.25023 35.76 0.740234 36.53 0.440234 37.36C0.140234 38.19 -0.00976562 39.09 -0.00976562 40.04C-0.00976562 40.99 0.140234 41.89 0.440234 42.72C0.740234 43.55 1.24023 44.33 1.96023 45.04L34.8202 77.93C36.1302 79.24 37.8002 79.9 39.8202 79.9C41.8402 79.9 43.5102 79.24 44.8202 77.93C46.1302 76.62 46.7802 74.95 46.7802 72.92C46.7802 70.89 46.1302 69.23 44.8202 67.91L17.1402 40.2L45.0002 12.31C46.4302 10.88 47.1402 9.18 47.1402 7.22L47.1502 7.24ZM172.26 37.36C171.96 36.53 171.46 35.75 170.74 35.04L137.88 2.15C136.57 0.84 134.9 0.18 132.88 0.18C130.86 0.18 129.19 0.84 127.88 2.15C126.57 3.46 125.92 5.13 125.92 7.16C125.92 9.19 126.57 10.85 127.88 12.17L155.56 39.88L127.88 67.59C126.45 69.02 125.74 70.72 125.74 72.68C125.74 74.64 126.45 76.34 127.88 77.77C129.31 79.2 130.98 79.94 132.88 80C134.78 80.06 136.45 79.37 137.88 77.94L170.74 45.05C171.45 44.33 171.96 43.56 172.26 42.73C172.56 41.9 172.71 41 172.71 40.05C172.71 39.1 172.56 38.2 172.26 37.37V37.36ZM107.97 30.83C107.93 30.75 107.89 30.71 107.81 30.64C103.98 26.36 98.5602 20.28 94.6602 15.95C93.4502 14.66 92.2402 13.38 91.1102 12.05C90.8402 11.74 90.6002 11.43 90.3302 11.12C90.1002 10.89 89.9802 10.73 89.9802 10.73H90.0202C88.6902 9.17 87.6402 7.42 86.9002 5.55L86.7002 5.12C86.7002 5.12 86.6602 5.08 86.6202 5.04C86.5802 5 86.5002 5 86.4602 5H86.4202C86.3402 5 86.3002 5.04 86.2602 5.04C86.2602 5.04 86.2336 5.06667 86.1802 5.12L85.9802 5.55C85.2002 7.42 84.1502 9.17 82.8602 10.73H82.9002C82.9002 10.73 82.7802 10.89 82.5502 11.12C82.2802 11.43 82.0402 11.74 81.7702 12.05C80.6002 13.37 79.4302 14.66 78.2202 15.95C74.3602 20.27 68.8902 26.35 65.0702 30.64C65.0302 30.72 64.9902 30.76 64.9102 30.83C50.4702 50.03 66.1602 65.69 66.1602 65.69H66.1202C70.7702 71.07 77.3602 74.38 84.4302 74.88C85.0502 74.96 85.7202 75 86.4202 75H86.4602C87.1202 75 87.7902 74.96 88.4502 74.88C95.5502 74.37 102.11 71.06 106.76 65.69H106.72C106.72 65.69 122.41 50.03 107.97 30.83ZM74.3602 44.34L74.0102 44.89L73.9702 44.93C71.3202 48.12 69.7502 51.55 69.2502 54.94C69.1702 55.37 68.7802 55.64 68.3902 55.56C68.1202 55.52 67.9202 55.33 67.8002 55.09C67.1002 53.45 66.6302 51.74 66.3902 49.99C65.5302 43.8 67.4102 38.38 71.3902 33.75C72.9902 31.92 74.5902 30.09 76.1902 28.26C76.4602 27.95 76.9302 27.91 77.2402 28.18C77.2402 28.18 77.2669 28.2067 77.3202 28.26C78.6102 29.74 80.2902 31.65 82.1602 33.83C82.3902 34.1 82.3902 34.53 82.1602 34.84C79.5802 37.92 76.8502 41.19 74.3902 44.31L74.3502 44.35L74.3602 44.34ZM96.5302 60.39C95.0502 64.29 92.1202 66.62 87.9802 67.28C82.0902 68.18 76.5802 64.16 75.6802 58.28C75.6802 58.2 75.6802 58.16 75.6402 58.09C75.1702 54.78 76.1902 51.86 78.3302 49.36C80.8302 46.44 86.3302 39.66 86.4102 39.54C86.5302 39.66 92.3802 46.94 94.5702 49.51C97.3802 52.74 98.0102 56.44 96.5202 60.38L96.5302 60.39ZM105.28 54.28C105.24 54.4 105.16 54.55 105.12 54.67C104.96 55.06 104.53 55.25 104.14 55.1C103.91 54.98 103.71 54.79 103.67 54.52C103.12 51.25 101.56 47.98 99.0202 44.9L98.9802 44.86L98.7502 44.51L98.5902 44.32C96.5602 41.75 85.8302 29.21 81.1402 23.75C80.9102 23.48 80.9102 23.05 81.1402 22.74C82.7002 21.03 84.2602 19.31 85.7902 17.56C86.0602 17.25 86.5302 17.25 86.8402 17.52L86.8802 17.56C87.5802 18.3 88.2502 19.04 88.9102 19.82C93.1602 24.57 97.4602 29.25 101.6 34.04C106.79 40.04 108 46.97 105.27 54.3L105.28 54.28Z" fill="#22D3EE"/>
</g>
<defs>
<clipPath id="clip0_6415_600">
<rect width="172.71" height="80" fill="white"/>
</clipPath>
</defs>
</svg>
