<svg width="80" height="80" viewBox="0 0 80 80" fill="none" xmlns="http://www.w3.org/2000/svg">
<path d="M39.9336 0C61.988 0.000212735 79.8662 17.8791 79.8662 39.9336C79.8661 61.988 61.988 79.867 39.9336 79.8672C17.8791 79.8672 0.000100621 61.9881 0 39.9336C0 17.879 17.879 0 39.9336 0ZM3.75488 33.3799C0.621304 50.2056 9.34529 66.4598 24.2324 73.4746C39.1194 80.4893 44.1248 74.5571 46.1416 70.9268C48.1584 67.2964 48.9651 58.8256 38.0742 55.1953C29.3615 52.2911 22.8808 49.6824 20.7295 48.7412C7.82173 42.9327 3.75489 35.8001 3.75488 33.3799ZM55.6279 6.38184C40.7408 -0.633006 35.7356 5.29938 33.7188 8.92969C31.702 12.5601 30.8953 21.0309 41.7861 24.6611C50.4986 27.5653 56.9794 30.173 59.1309 31.1143C72.0386 36.9228 76.1055 44.0564 76.1055 46.4766C79.239 29.6509 70.5151 13.3967 55.6279 6.38184Z" fill="#22D3EE"/>
</svg>
