<svg width="80" height="80" viewBox="0 0 80 80" fill="none" xmlns="http://www.w3.org/2000/svg">
<mask id="mask0_6416_620" style="mask-type:alpha" maskUnits="userSpaceOnUse" x="0" y="0" width="80" height="80">
<rect width="80" height="80" fill="#D9D9D9"/>
</mask>
<g mask="url(#mask0_6416_620)">
<path d="M36.8437 52.0506H44.1563C44.7656 52.0506 45.2904 51.7975 45.7305 51.2911C46.1706 50.7848 46.3229 50.2278 46.1875 49.6203L44.2578 38.9873C45.612 38.3122 46.6784 37.3333 47.457 36.0506C48.2357 34.7679 48.625 33.3502 48.625 31.7975C48.625 29.5696 47.8294 27.6624 46.2383 26.0759C44.6471 24.4895 42.7344 23.6962 40.5 23.6962C38.2656 23.6962 36.3529 24.4895 34.7617 26.0759C33.1706 27.6624 32.375 29.5696 32.375 31.7975C32.375 33.3502 32.7643 34.7679 33.543 36.0506C34.3216 37.3333 35.388 38.3122 36.7422 38.9873L34.8125 49.6203C34.6771 50.2278 34.8294 50.7848 35.2695 51.2911C35.7096 51.7975 36.2344 52.0506 36.8437 52.0506ZM40.5 80C40.026 80 39.5859 79.9662 39.1797 79.8987C38.7734 79.8312 38.3672 79.73 37.9609 79.5949C28.8203 76.557 21.5417 70.9367 16.125 62.7342C10.7083 54.5316 8 45.7046 8 36.2532V17.1139C8 15.4262 8.49089 13.9072 9.47266 12.557C10.4544 11.2068 11.724 10.2278 13.2813 9.62025L37.6563 0.506329C38.6042 0.168776 39.5521 0 40.5 0C41.4479 0 42.3958 0.168776 43.3437 0.506329L67.7187 9.62025C69.276 10.2278 70.5456 11.2068 71.5273 12.557C72.5091 13.9072 73 15.4262 73 17.1139V36.2532C73 45.7046 70.2917 54.5316 64.875 62.7342C59.4583 70.9367 52.1797 76.557 43.0391 79.5949C42.6328 79.73 42.2266 79.8312 41.8203 79.8987C41.4141 79.9662 40.974 80 40.5 80ZM40.5 71.8987C47.5417 69.6709 53.3646 65.2152 57.9688 58.5316C62.5729 51.8481 64.875 44.4219 64.875 36.2532V17.1139L40.5 8L16.125 17.1139V36.2532C16.125 44.4219 18.4271 51.8481 23.0313 58.5316C27.6354 65.2152 33.4583 69.6709 40.5 71.8987Z" fill="#22D3EE"/>
</g>
</svg>
