<svg width="163" height="80" viewBox="0 0 163 80" fill="none" xmlns="http://www.w3.org/2000/svg">
<g clip-path="url(#clip0_6415_604)">
<path d="M39.24 46.13C37.33 45.95 35.34 45.85 33.24 45.85C32.77 45.85 32.32 45.85 31.86 45.86C31.4 45.86 30.95 45.85 30.48 45.85C21.34 45.85 13.97 47.56 8.38 50.99C2.79 54.42 0 58.87 0 64.33V68.71C0 70.87 0.73 72.68 2.19 74.14C3.65 75.6 5.46 76.33 7.62 76.33H49.18C43.85 69.77 38.47 58.88 39.24 46.14V46.13ZM31.86 38.23C35.61 38.23 38.84 37.1 41.54 34.84C42.79 31.27 44.6 27.62 47.06 23.94C47.08 23.62 47.1 23.31 47.1 22.99C47.1 18.67 45.64 15.05 42.72 12.13C39.8 9.21001 36.18 7.75001 31.86 7.75001C27.54 7.75001 24.08 9.21001 21.1 12.13C18.12 15.05 16.62 18.67 16.62 22.99C16.62 27.31 18.11 30.77 21.1 33.75C24.09 36.73 27.67 38.23 31.86 38.23ZM153.84 50.99C148.25 47.56 140.89 45.85 131.74 45.85C131.27 45.85 130.82 45.85 130.36 45.86C129.93 45.86 129.51 45.85 129.08 45.85C129.95 58.72 124.53 69.72 119.16 76.33H154.61C156.77 76.33 158.58 75.6 160.04 74.14C161.5 72.68 162.23 70.87 162.23 68.71V64.33C162.23 58.87 159.44 54.43 153.85 51L153.84 50.99ZM109.1 29.52C109.06 29.43 109.01 29.39 108.92 29.3C104.55 24.4 98.35 17.46 93.89 12.52C92.51 11.05 91.12 9.58001 89.83 8.07001C89.52 7.71001 89.25 7.36001 88.94 7.00001C88.67 6.73001 88.54 6.55001 88.54 6.55001H88.58C87.06 4.77001 85.86 2.77001 85.01 0.63001L84.79 0.14001C84.79 0.14001 84.75 0.10001 84.7 0.0500098C84.66 0.0100098 84.57 0.0100098 84.52 0.0100098H84.48C84.39 0.0100098 84.35 0.0500098 84.3 0.0500098C84.3 0.0500098 84.27 0.0800098 84.21 0.14001L83.99 0.63001C83.1 2.77001 81.89 4.77001 80.42 6.55001H80.46C80.46 6.55001 80.33 6.73001 80.06 7.00001C79.75 7.36001 79.48 7.71001 79.17 8.07001C77.83 9.58001 76.49 11.05 75.11 12.52C70.69 17.46 64.45 24.41 60.08 29.3C60.04 29.39 59.99 29.43 59.9 29.52C43.39 51.47 61.33 69.36 61.33 69.36H61.29C66.6 75.5 74.14 79.29 82.21 79.87C82.92 79.96 83.68 80 84.49 80H84.53C85.29 80 86.05 79.96 86.81 79.87C94.93 79.29 102.42 75.51 107.73 69.36H107.69C107.69 69.36 125.62 51.46 109.12 29.52H109.1ZM70.69 44.96L70.29 45.58L70.25 45.62C67.22 49.27 65.43 53.19 64.85 57.06C64.76 57.55 64.31 57.86 63.87 57.77C63.56 57.73 63.33 57.5 63.2 57.24C62.4 55.37 61.86 53.41 61.59 51.41C60.61 44.33 62.75 38.14 67.3 32.85C69.13 30.76 70.96 28.67 72.79 26.57C73.1 26.21 73.64 26.17 73.99 26.48C73.99 26.48 74.02 26.51 74.08 26.57C75.55 28.26 77.47 30.44 79.61 32.94C79.88 33.25 79.88 33.74 79.61 34.1C76.67 37.62 73.54 41.36 70.73 44.92L70.69 44.96ZM96.03 63.31C94.33 67.76 90.99 70.43 86.26 71.19C79.52 72.21 73.23 67.63 72.21 60.91C72.21 60.82 72.21 60.78 72.17 60.69C71.63 56.91 72.79 53.57 75.25 50.72C78.11 47.38 84.4 39.64 84.48 39.5C84.61 39.63 91.31 47.96 93.8 50.9C97.01 54.59 97.73 58.82 96.03 63.32V63.31ZM106.03 56.32C105.99 56.45 105.9 56.63 105.85 56.77C105.67 57.22 105.18 57.44 104.73 57.26C104.46 57.13 104.24 56.9 104.19 56.59C103.57 52.85 101.78 49.11 98.88 45.59L98.84 45.55L98.57 45.15L98.39 44.93C96.07 41.99 83.8 27.66 78.45 21.42C78.18 21.11 78.18 20.62 78.45 20.26C80.23 18.3 82.02 16.34 83.76 14.34C84.07 13.98 84.61 13.98 84.96 14.3L85 14.34C85.8 15.19 86.56 16.03 87.32 16.92C92.18 22.35 97.09 27.69 101.82 33.17C107.75 40.03 109.14 47.95 106.01 56.32H106.03ZM127.77 38.01C128.61 38.15 129.47 38.23 130.36 38.23C134.68 38.23 138.3 36.74 141.22 33.75C144.14 30.76 145.6 27.18 145.6 22.99C145.6 18.8 144.14 15.05 141.22 12.13C138.3 9.21001 134.68 7.75001 130.36 7.75001C126.04 7.75001 122.58 9.21001 119.6 12.13C117.99 13.7 116.83 15.49 116.09 17.47C116.86 18.33 117.61 19.17 118.29 19.93C118.64 20.3 119.14 20.87 119.67 21.63C123.79 27.2 126.35 32.71 127.77 38V38.01Z" fill="#22D3EE"/>
</g>
<defs>
<clipPath id="clip0_6415_604">
<rect width="162.22" height="80" fill="white"/>
</clipPath>
</defs>
</svg>
